<svg width="164" height="53" viewBox="0 0 164 53" fill="none" xmlns="http://www.w3.org/2000/svg">
<path d="M51.5781 19.1089C50.7666 17.1811 50.4038 16.9013 48.8942 16.9013V16.6216H58.7297V16.9013C57.3891 16.9013 55.9627 17.2642 55.9627 18.4386C55.9627 18.6352 56.0181 18.8568 56.1012 19.1089C56.212 19.444 60.7129 30.3708 60.7129 30.3985L64.9617 19.3055C65.2138 18.6352 65.3523 18.1588 65.3523 17.796C65.3523 17.1257 64.8482 16.9013 63.7873 16.9013V16.6216H68.3436V16.9013C66.8341 16.9013 66.3605 17.2365 65.6043 19.2196L59.0926 36.1819H58.5331L51.5754 19.1089H51.5781Z" fill="#726658"/>
<path d="M67.2274 23.2163C68.4018 23.2163 69.3518 24.1663 69.3518 25.313C69.3518 26.4597 68.4018 27.4098 67.2551 27.4098C66.1084 27.4098 65.1584 26.4874 65.1584 25.313C65.1584 22.6014 68.0639 21.6514 70.3295 21.6514C73.933 21.6514 76.448 23.6068 76.4203 26.5151L76.3372 31.8525C76.3372 32.5782 76.3095 34.506 77.3426 34.506C78.0129 34.506 78.4311 34.0323 78.4311 33.3593H78.6555C78.6555 35.035 77.398 36.1817 75.7223 36.1817C74.354 36.1817 73.3458 35.5391 72.7891 34.5614C72.0357 35.5668 70.6924 36.1817 69.241 36.1817C66.9781 36.1817 64.2942 35.204 64.2942 32.2403C64.2942 28.0496 69.1579 27.6009 72.1742 27.0996V26.011C72.1742 22.7427 70.1634 22.2663 69.2133 22.2663C68.3741 22.2663 67.6761 22.6014 67.2302 23.2163H67.2274ZM72.2296 32.3815L72.1742 27.6037C70.3572 28.2185 68.4849 29.1963 68.4849 31.7667C68.4849 33.639 69.8254 34.8965 71.1383 34.8965C71.7532 34.8965 72.2573 34.5891 72.5647 34.1708C72.3404 33.639 72.2296 33.0241 72.2296 32.3815Z" fill="#726658"/>
<path d="M84.5219 33.6946C84.605 35.1488 85.6686 35.9021 87.1476 35.9021V36.1819H77.675V35.9021C79.2676 35.9021 80.3007 35.1765 80.3007 33.6946L80.3284 19.3305C80.3284 17.7655 79.2676 17.1229 77.675 17.1229V16.8432L84.5219 16.2837V33.6946Z" fill="#726658"/>
<path d="M93.6317 21.7622C97.8224 21.7622 100.589 24.6954 100.589 29.1686H90.5573C90.5573 32.8026 92.2607 35.1763 95 35.1763C96.9277 35.1763 98.8555 33.9742 99.4981 32.7444L100.002 32.9688C98.8278 35.204 96.5649 36.5446 93.6317 36.5446C89.2721 36.5446 86.3666 33.5837 86.3666 29.1686C86.3666 24.7536 89.2721 21.7622 93.6317 21.7622ZM96.6785 28.6091C96.6785 24.5569 96.119 22.3217 93.773 22.3217C91.258 22.3217 90.6154 24.8367 90.56 28.6091H96.6785Z" fill="#726658"/>
<path d="M112.048 34.2264C111.153 35.567 109.702 36.7137 107.464 36.7137C104.503 36.7137 102.517 35.0656 102.517 32.6061V22.7705H100.814V22.211H102.517V19.6684C103.578 19.6684 105.954 17.7683 106.428 16.6216H106.708V22.211H108.384V22.7705H106.708V32.3568C106.708 34.6197 107.406 35.8218 108.636 35.8218C109.782 35.8218 110.871 34.9548 111.541 34.0048L112.045 34.2292L112.048 34.2264Z" fill="#726658"/>
<path d="M115.399 26.9336C116.546 26.9336 117.496 27.8836 117.496 29.0303C117.496 30.177 116.546 31.1271 115.399 31.1271C114.253 31.1271 113.303 30.2047 113.303 29.0303C113.303 27.8559 114.225 26.9336 115.399 26.9336Z" fill="#C49A6C"/>
<path d="M119.313 35.9023C120.878 35.9023 121.939 35.1766 121.939 33.6948V24.668C121.939 23.1308 120.878 22.4882 119.313 22.4605V22.1807L126.132 21.6489V25.0308C126.886 23.1862 128.451 21.6489 131.218 21.6489C133.816 21.6489 135.774 23.0172 136.109 25.1139C136.862 23.2139 138.427 21.6489 141.222 21.6489C144.183 21.6489 146.141 23.297 146.141 25.7842V33.692C146.224 35.1461 147.288 35.8995 148.767 35.8995V36.1793H139.35V35.8995C140.915 35.8995 141.975 35.1738 141.975 33.692V26.0363C141.975 23.7457 141.277 22.5713 140.048 22.5713C137.923 22.5713 136.472 24.499 136.164 27.0971V33.692C136.22 35.1461 137.283 35.8995 138.79 35.8995V36.1793H129.345V35.8995C130.938 35.8995 131.971 35.1738 131.971 33.692V26.0363C131.971 23.7457 131.273 22.5713 130.043 22.5713C127.863 22.5713 126.409 24.5821 126.132 27.2938V33.692C126.215 35.1461 127.279 35.8995 128.758 35.8995V36.1793H119.313V35.8995V35.9023Z" fill="#C49A6C"/>
<path d="M152.285 23.2163C153.459 23.2163 154.409 24.1663 154.409 25.313C154.409 26.4597 153.459 27.4098 152.312 27.4098C151.166 27.4098 150.216 26.4874 150.216 25.313C150.216 22.6014 153.121 21.6514 155.387 21.6514C158.99 21.6514 161.505 23.6068 161.477 26.5151L161.394 31.8525C161.394 32.5782 161.367 34.506 162.4 34.506C163.07 34.506 163.488 34.0323 163.488 33.3593H163.713C163.713 35.035 162.455 36.1817 160.779 36.1817C159.411 36.1817 158.403 35.5391 157.846 34.5614C157.093 35.5668 155.75 36.1817 154.298 36.1817C152.035 36.1817 149.351 35.204 149.351 32.2403C149.351 28.0496 154.215 27.6009 157.231 27.0996V26.011C157.231 22.7427 155.221 22.2663 154.271 22.2663C153.431 22.2663 152.733 22.6014 152.287 23.2163H152.285ZM157.287 32.3815L157.231 27.6037C155.414 28.2185 153.542 29.1963 153.542 31.7667C153.542 33.639 154.883 34.8965 156.196 34.8965C156.81 34.8965 157.314 34.5891 157.622 34.1708C157.398 33.639 157.287 33.0241 157.287 32.3815Z" fill="#C49A6C"/>
<path d="M19.7422 44.1645L29.3451 10.2539L37.9148 17.0067L32.0151 17.6576L34.447 21.2029L19.745 44.1645H19.7422Z" fill="#726658"/>
<path d="M18.4543 44.1645L8.85425 10.2539L0.284546 17.0067L6.18418 17.6576L3.75231 21.2029L18.4543 44.1645Z" fill="#726658"/>
<path d="M18.3712 12.2423L14.3578 14.7185L11.6905 8.83545H26.506L23.8387 14.7185L19.8253 12.2423L22.3292 21.6928L19.0969 33.891L15.8645 21.6928L18.3684 12.2423H18.3712Z" fill="#C49A6C"/>
<path d="M43.3768 0H42.7259V53H43.3768V0Z" fill="#C49A6C"/>
</svg>
